<?xml version="1.0" standalone="no"?>
<!DOCTYPE svg PUBLIC "-//W3C//DTD SVG 20010904//EN"
 "http://www.w3.org/TR/2001/REC-SVG-20010904/DTD/svg10.dtd">
<svg version="1.0" xmlns="http://www.w3.org/2000/svg"
 width="9216.000000pt" height="2304.000000pt" viewBox="0 0 9216.000000 2304.000000"
 preserveAspectRatio="xMidYMid meet">

<g transform="translate(0.000000,2304.000000) scale(0.100000,-0.100000)"
fill="#000000" stroke="none">
<path d="M17491 22943 c154 -510 299 -1247 368 -1868 124 -1100 129 -2262 15
-3620 -56 -678 -148 -1419 -299 -2410 -184 -1209 -246 -2396 -270 -5165 -6
-758 -20 -1545 -35 -2065 -47 -1613 -167 -2913 -371 -4040 -41 -228 -45 -248
-104 -529 -187 -883 -447 -1711 -768 -2446 -30 -69 -67 -154 -83 -190 -15 -36
-89 -188 -164 -337 l-135 -273 7940 0 7940 0 -35 22 c-19 11 -51 31 -70 43
-19 12 -68 43 -108 69 -40 26 -78 43 -84 40 -6 -4 -8 -3 -5 3 4 5 -40 41 -96
79 -56 38 -104 71 -107 74 -3 3 -45 34 -95 70 -49 35 -113 82 -141 104 -29 23
-73 57 -98 76 -26 19 -55 42 -64 51 -9 8 -53 44 -97 79 -44 35 -119 99 -166
142 -48 43 -88 78 -90 78 -7 0 -192 175 -323 305 -137 136 -475 503 -523 567
-15 21 -34 35 -41 33 -7 -3 -11 -1 -8 4 3 5 -31 56 -77 112 -182 228 -351 456
-502 680 -93 137 -355 553 -355 563 0 3 -30 56 -67 118 -77 130 -330 630 -389
765 -21 50 -43 89 -48 85 -5 -3 -6 0 -3 6 4 5 -15 63 -43 127 -244 569 -413
1161 -499 1740 -65 441 -89 983 -61 1383 48 675 214 1318 500 1932 39 85 72
160 74 166 1 7 7 18 13 25 6 8 43 77 82 154 38 77 89 174 112 215 71 128 330
556 454 750 65 102 123 194 129 205 6 11 56 88 110 170 328 497 596 956 777
1330 107 223 121 254 112 269 -3 6 -3 8 2 4 12 -11 90 172 168 397 19 55 54
150 78 210 24 61 44 112 44 115 1 3 13 30 27 60 14 30 57 125 96 210 126 275
283 578 504 970 46 82 189 324 212 360 13 19 72 114 131 210 60 96 135 214
167 262 32 48 58 89 58 91 0 2 60 92 133 199 183 270 232 343 289 420 29 39
46 72 42 79 -4 7 -3 9 4 5 6 -3 35 29 68 76 32 46 86 120 121 165 35 45 63 85
63 88 0 3 9 15 20 27 10 12 17 26 13 31 -3 6 -1 7 5 3 6 -4 16 4 23 16 7 13
44 64 84 113 39 50 127 162 195 250 67 87 147 189 177 225 30 36 57 70 61 75
22 29 162 198 206 249 28 32 50 63 49 67 -2 5 1 8 5 6 5 -1 26 19 48 44 78 91
132 155 169 199 21 25 58 68 84 96 25 28 73 82 106 120 72 82 171 189 284 307
47 48 82 87 80 87 -6 0 79 87 457 470 305 310 582 577 701 677 24 19 40 40 36
46 -3 5 -2 7 4 4 13 -8 86 67 76 78 -5 4 -3 6 2 2 6 -3 45 24 85 60 41 36 104
92 140 124 36 32 76 67 90 79 43 36 120 102 204 175 122 106 247 209 391 325
72 57 146 118 165 134 44 38 207 167 228 181 9 6 57 42 106 80 50 39 148 113
219 164 70 51 127 97 127 102 0 6 4 8 8 5 4 -2 19 4 32 15 14 11 50 36 80 56
30 21 73 51 95 69 97 77 771 529 938 629 19 11 69 42 113 69 228 143 428 262
656 391 79 44 135 82 131 88 -3 6 -1 7 5 3 6 -3 98 41 204 99 106 58 342 180
523 271 182 92 332 168 334 170 2 2 -4991 4 -11096 4 l-11101 0 29 -97z"/>
<path d="M60916 22984 c553 -350 916 -641 1335 -1073 102 -105 183 -191 180
-191 -3 0 -1 -4 4 -8 33 -24 183 -207 321 -392 597 -798 1002 -1713 1243
-2810 181 -823 302 -1804 353 -2875 16 -333 16 -1365 0 -1685 -37 -719 -106
-1462 -186 -1982 -8 -51 -24 -156 -36 -233 -106 -696 -288 -1514 -486 -2190
-34 -114 -114 -371 -174 -555 -109 -334 -336 -923 -467 -1210 -14 -30 -52
-113 -85 -185 -32 -71 -124 -258 -203 -413 -80 -156 -142 -289 -138 -295 3 -6
1 -7 -5 -3 -7 4 -21 -13 -37 -44 -30 -59 -285 -487 -326 -547 -16 -23 -29 -46
-29 -51 0 -6 -3 -12 -8 -14 -4 -1 -33 -41 -64 -88 -125 -188 -349 -496 -435
-597 -26 -31 -41 -58 -37 -64 4 -7 3 -9 -3 -6 -6 4 -36 -24 -66 -62 -31 -37
-62 -74 -69 -82 -8 -8 -20 -23 -28 -35 -28 -40 -165 -189 -330 -357 -168 -173
-349 -340 -520 -481 -52 -43 -103 -87 -112 -98 -10 -11 -18 -17 -18 -13 0 4
-15 -6 -33 -21 -58 -51 -334 -247 -487 -345 -82 -53 -146 -100 -142 -104 4 -5
2 -5 -4 -2 -6 4 -67 -25 -135 -64 -244 -139 -527 -270 -819 -379 -127 -47
-484 -163 -565 -183 -11 -3 -146 -38 -300 -80 -586 -156 -1455 -364 -2422
-579 -127 -29 -230 -56 -227 -60 3 -4 -1 -5 -9 -2 -7 2 -78 -9 -158 -26 -79
-17 -268 -58 -419 -90 -151 -32 -340 -73 -420 -90 -80 -17 -282 -60 -450 -95
-168 -35 -350 -73 -405 -85 -55 -12 -122 -25 -150 -30 -27 -5 -295 -59 -595
-120 -716 -146 -1448 -291 -2360 -470 -655 -127 -2273 -432 -3165 -594 -165
-30 -412 -76 -550 -101 -137 -25 -385 -70 -550 -100 -363 -66 -320 -58 -545
-100 -227 -42 -1271 -227 -1470 -261 -80 -14 -152 -27 -160 -29 -16 -5 -662
-117 -1065 -185 -126 -21 -284 -48 -350 -60 -66 -12 -142 -25 -170 -29 -27 -5
-113 -19 -190 -32 l-140 -24 19444 -3 c10694 -1 19446 0 19449 2 2 3 -12 166
-32 363 -19 197 -42 446 -51 553 -8 107 -19 251 -25 320 -9 118 -17 260 -40
676 -32 602 -38 1884 -11 2429 28 543 85 1268 121 1535 5 36 16 133 25 215 8
83 20 175 25 205 6 30 21 141 35 245 124 914 384 2051 664 2900 145 439 353
990 480 1267 11 26 21 49 21 52 0 3 25 58 55 121 30 64 55 119 55 121 0 6 253
512 302 604 102 190 183 332 318 555 205 340 426 665 669 985 52 69 98 127
101 130 3 3 21 25 40 50 70 91 190 234 340 404 184 210 647 683 895 916 278
261 625 572 800 715 27 22 78 65 114 96 36 30 134 108 216 173 83 64 157 122
165 129 45 36 342 258 385 287 28 18 52 36 55 40 6 7 295 206 463 319 113 75
416 264 547 341 41 24 95 56 120 71 224 136 1017 539 1224 621 27 10 68 27 90
37 160 72 688 267 916 339 430 134 735 210 1120 276 504 86 832 99 977 39 18
-7 37 -13 43 -13 7 0 10 776 10 2460 l0 2460 -15667 0 -15666 0 89 -56z"/>
<path d="M87485 16013 c-79 -98 -84 -124 -27 -177 20 -20 40 -36 44 -36 7 0
23 221 17 239 -2 6 -17 -6 -34 -26z"/>
<path d="M89100 15841 l-35 -6 3 -50 c4 -63 34 -131 61 -140 11 -3 52 3 92 15
79 24 74 13 48 113 -19 73 -57 88 -169 68z"/>
<path d="M91269 15645 c-86 -63 -91 -178 -9 -220 54 -28 77 -18 170 69 l53 49
-66 64 c-73 71 -94 77 -148 38z"/>
<path d="M92111 15638 l-44 -32 39 -33 c21 -18 42 -33 47 -33 4 0 7 29 7 65 0
36 -1 65 -3 65 -2 0 -23 -14 -46 -32z"/>
<path d="M90787 14780 c-14 -11 -38 -45 -52 -74 -31 -63 -27 -110 12 -157 20
-24 32 -29 69 -29 45 0 52 4 161 101 l41 38 -81 70 c-86 76 -108 84 -150 51z"/>
<path d="M86425 14356 c-23 -14 -47 -36 -54 -50 -29 -53 11 -214 69 -276 24
-26 35 -30 79 -30 55 0 151 18 164 30 9 8 -14 145 -38 226 -34 114 -127 156
-220 100z"/>
<path d="M91789 14022 c-18 -14 -38 -41 -45 -59 -12 -29 -12 -38 1 -70 20 -47
53 -83 76 -83 17 0 163 92 174 109 6 11 -112 108 -147 120 -23 8 -33 6 -59
-17z"/>
<path d="M90302 13338 c-34 -44 -35 -66 -4 -100 20 -23 33 -23 60 2 28 26 28
55 -1 103 l-23 37 -32 -42z"/>
<path d="M85772 12933 c-18 -8 -59 -46 -92 -83 l-60 -67 58 -45 c74 -58 93
-68 134 -68 46 0 73 22 93 75 23 59 13 126 -23 165 -34 36 -68 43 -110 23z"/>
<path d="M88156 12865 c-31 -47 -13 -130 31 -141 41 -11 71 4 97 49 41 71 41
81 1 100 -54 26 -109 22 -129 -8z"/>
<path d="M90951 10103 c-39 -19 -88 -90 -97 -141 -26 -140 160 -268 277 -189
101 68 67 273 -55 328 -51 23 -81 23 -125 2z"/>
<path d="M88091 9031 c-27 -37 -26 -41 11 -70 l31 -25 23 30 c13 16 24 31 23
34 0 3 -15 17 -34 33 l-33 27 -21 -29z"/>
<path d="M14203 7498 c-25 -36 -18 -62 24 -81 21 -9 27 -8 39 8 8 10 14 24 14
29 0 15 -38 76 -47 76 -5 0 -18 -15 -30 -32z"/>
<path d="M7330 6409 c-49 -49 -62 -81 -48 -121 17 -50 77 -127 104 -134 26 -7
62 14 136 79 l37 32 -83 88 c-46 48 -91 87 -99 87 -9 0 -29 -14 -47 -31z"/>
<path d="M2803 5890 c-13 -15 -25 -35 -29 -43 -7 -20 21 -74 47 -88 17 -9 25
-7 45 12 13 12 24 29 24 37 0 17 -51 112 -59 111 -3 0 -16 -13 -28 -29z"/>
<path d="M13311 3804 c-68 -101 -67 -119 12 -202 l41 -42 53 52 c68 67 68 88
7 191 -25 42 -49 77 -54 77 -4 0 -30 -34 -59 -76z"/>
<path d="M14506 3734 l-65 -57 51 -58 c84 -96 163 -103 196 -16 12 31 11 40
-8 85 -14 33 -35 60 -59 76 -20 14 -40 26 -43 26 -4 0 -36 -25 -72 -56z"/>
<path d="M4231 2249 c-6 -18 -11 -37 -11 -43 0 -11 90 -66 108 -66 8 0 32 72
32 98 0 10 -82 42 -106 42 -7 0 -17 -14 -23 -31z"/>
<path d="M7771 2116 l-34 -35 49 -30 c57 -37 59 -37 78 -9 11 16 13 26 4 42
-12 25 -49 66 -58 66 -3 0 -21 -15 -39 -34z"/>
<path d="M13621 883 l-53 -48 55 -52 c31 -29 65 -53 76 -53 20 0 81 68 81 90
0 25 -73 110 -94 110 -7 0 -36 -21 -65 -47z"/>
</g>
</svg>
