<svg id="Layer_1" data-name="Layer 1" xmlns="http://www.w3.org/2000/svg" viewBox="0 0 1110 541"><defs><style>.cls-1{fill:#8081e0;}.cls-2{fill:#1c1d19;}.cls-3,.cls-5{fill:#b1e5fd;}.cls-4{font-size:33px;}.cls-4,.cls-5{font-family:Helvetica-Bold, Helvetica;font-weight:700;}.cls-5{font-size:78.89px;}.cls-6{letter-spacing:-0.04em;}.cls-7{font-size:36px;}.cls-8{letter-spacing:-0.07em;}.cls-9{letter-spacing:-0.04em;}</style></defs><rect class="cls-1" y="0.5" width="1110" height="540"/><circle class="cls-2" cx="1116" cy="80.5" r="60"/><circle class="cls-2" cx="-25" cy="527.5" r="121"/><circle class="cls-1" cx="-25" cy="527.5" r="60"/><circle class="cls-3" cx="91.19" cy="151.31" r="160.81"/><circle class="cls-1" cx="91.19" cy="151.31" r="77.21"/><circle class="cls-2" cx="91.19" cy="151.31" r="42.02"/><path class="cls-2" d="M788.5,304c0,187.78-152.22,340-340,340h-340V304c0-187.78,152.22-340,340-340S788.5,116.22,788.5,304Z"/><path class="cls-3" d="M1034,380.7V681.3a39.2,39.2,0,0,1-39.2,39.2H840.2A39.2,39.2,0,0,1,801,681.3V380.7a39.2,39.2,0,0,1,39.2-39.2h8.18L831,293.5h0a2.5,2.5,0,0,1,4-2l66.67,50H994.8A39.2,39.2,0,0,1,1034,380.7Z"/><text class="cls-4" transform="translate(834.3 404.96)">I’m excited <tspan x="0" y="39.6">to have</tspan><tspan x="0" y="79.2">you with</tspan><tspan x="0" y="118.8">me!</tspan></text><text class="cls-5" transform="translate(191.27 161.93)">Hi! <tspan x="0" y="100">I&apos;m Nurul</tspan><tspan class="cls-6" x="338.7" y="100"> </tspan><tspan x="357.73" y="100">Aini</tspan><tspan class="cls-7"><tspan x="0" y="186.4">I am a Data Science </tspan><tspan class="cls-8" x="346.18" y="186.4">T</tspan><tspan x="365.52" y="186.4">echnology </tspan><tspan x="0" y="229.6">Student at</tspan><tspan class="cls-9" x="175.99" y="229.6"> </tspan><tspan x="184.68" y="229.6">Airlangga University</tspan></tspan></text></svg>