<?xml version="1.0" encoding="utf-8"?>
<!-- Generator: Adobe Illustrator 24.2.0, SVG Export Plug-In . SVG Version: 6.00 Build 0)  -->
<svg version="1.1" xmlns="http://www.w3.org/2000/svg" xmlns:xlink="http://www.w3.org/1999/xlink" x="0px" y="0px"
	 viewBox="0 0 1110 540" style="enable-background:new 0 0 1110 540;" xml:space="preserve">
<style type="text/css">
	.st0{fill:#B8A1D9;}
	.st1{fill:none;stroke:#000000;stroke-width:3;stroke-miterlimit:10;}
	.st2{opacity:0.47;fill:none;stroke:#000000;stroke-width:3;stroke-miterlimit:10;}
	.st3{fill:none;}
	.st4{font-family:'Helvetica-Bold';}
	.st5{font-size:90px;}
	.st6{font-size:64px;}
</style>
<g id="Layer_1">
</g>
<g id="Layer_2">
	<rect class="st0" width="1110" height="540"/>
	<polyline class="st1" points="-4.5,188.8 408.8,188.8 429.8,135.1 1150,135.1 	"/>
	<polygon points="388.3,171 381,171 396.6,133.6 404,133.6 	"/>
	<polygon points="359.4,171 352,171 367.6,133.6 375,133.6 	"/>
	<polygon points="330.4,171 323,171 338.7,133.6 346,133.6 	"/>
	<polygon points="301.4,171 294.1,171 309.7,133.6 317,133.6 	"/>
	<polygon points="272.4,171 265.1,171 280.7,133.6 288.1,133.6 	"/>
	<polygon points="243.5,171 236.1,171 251.7,133.6 259.1,133.6 	"/>
	<polygon points="214.5,171 207.1,171 222.8,133.6 230.1,133.6 	"/>
	<polygon points="185.5,171 178.2,171 193.8,133.6 201.1,133.6 	"/>
	<polygon points="156.5,171 149.2,171 164.8,133.6 172.2,133.6 	"/>
	<path class="st2" d="M459.5,164.7c4.4,0,44.6,0,44.6,0l-64.8,181.7h-45.9L459.5,164.7z"/>
	<path class="st2" d="M557.6,164.7c4.4,0,44.6,0,44.6,0l-64.8,181.7h-45.9L557.6,164.7z"/>
	<path class="st2" d="M655.6,164.7c4.4,0,44.6,0,44.6,0l-64.8,181.7h-45.9L655.6,164.7z"/>
	<path class="st2" d="M753.7,164.7c4.4,0,44.6,0,44.6,0l-64.8,181.7h-45.9L753.7,164.7z"/>
	<path class="st2" d="M851.8,164.7c4.4,0,44.6,0,44.6,0l-64.8,181.7h-45.9L851.8,164.7z"/>
	<path class="st2" d="M949.8,164.7c4.4,0,44.6,0,44.6,0l-64.8,181.7h-45.9L949.8,164.7z"/>
	<path class="st2" d="M1045.9,164.7c4.4,0,44.6,0,44.6,0l-64.8,181.7h-45.9L1045.9,164.7z"/>
	<path class="st2" d="M1143.9,164.7c4.4,0,44.6,0,44.6,0l-64.8,181.7h-45.9L1143.9,164.7z"/>
</g>
<g id="Layer_3">
	<rect x="22.1" y="236.2" class="st3" width="836.8" height="81.8"/>
	<text transform="matrix(1 0 0 1 22.1031 300.9502)" class="st4 st5">Home/Contact</text>
	<rect x="84.9" y="341.6" class="st3" width="573.8" height="105.7"/>
	<text transform="matrix(1 0 0 1 84.9184 387.6455)" class="st4 st6">Contact Me!</text>
</g>
</svg>
